<mxfile host="app.diagrams.net" modified="2023-03-22T11:45:09.681Z" agent="5.0 (Windows NT 10.0; Win64; x64) AppleWebKit/537.36 (KHTML, like Gecko) Chrome/111.0.0.0 Safari/537.36" etag="HnLpVdnU-f3U66EX-hHi" version="20.8.13" type="github">
  <diagram id="C5RBs43oDa-KdzZeNtuy" name="Page-1">
    <mxGraphModel dx="1050" dy="541" grid="1" gridSize="10" guides="1" tooltips="1" connect="1" arrows="1" fold="1" page="1" pageScale="1" pageWidth="827" pageHeight="1169" math="0" shadow="0">
      <root>
        <mxCell id="WIyWlLk6GJQsqaUBKTNV-0" />
        <mxCell id="WIyWlLk6GJQsqaUBKTNV-1" parent="WIyWlLk6GJQsqaUBKTNV-0" />
        <mxCell id="-h37mYGi952KiiFlhKIM-2" value="" style="edgeStyle=orthogonalEdgeStyle;rounded=0;orthogonalLoop=1;jettySize=auto;html=1;" edge="1" parent="WIyWlLk6GJQsqaUBKTNV-1" source="-h37mYGi952KiiFlhKIM-0" target="-h37mYGi952KiiFlhKIM-1">
          <mxGeometry relative="1" as="geometry" />
        </mxCell>
        <mxCell id="-h37mYGi952KiiFlhKIM-0" value="Wear HeadSet" style="rounded=0;whiteSpace=wrap;html=1;" vertex="1" parent="WIyWlLk6GJQsqaUBKTNV-1">
          <mxGeometry x="360" y="40" width="120" height="40" as="geometry" />
        </mxCell>
        <mxCell id="-h37mYGi952KiiFlhKIM-1" value="Adjust Hololence?" style="rhombus;whiteSpace=wrap;html=1;rounded=0;" vertex="1" parent="WIyWlLk6GJQsqaUBKTNV-1">
          <mxGeometry x="380" y="120" width="80" height="80" as="geometry" />
        </mxCell>
        <mxCell id="-h37mYGi952KiiFlhKIM-3" value="Adjust Hololence" style="whiteSpace=wrap;html=1;rounded=0;" vertex="1" parent="WIyWlLk6GJQsqaUBKTNV-1">
          <mxGeometry x="520" y="140" width="120" height="40" as="geometry" />
        </mxCell>
        <mxCell id="-h37mYGi952KiiFlhKIM-6" value="" style="endArrow=classic;html=1;rounded=0;exitX=1;exitY=0.5;exitDx=0;exitDy=0;entryX=0;entryY=0.5;entryDx=0;entryDy=0;" edge="1" parent="WIyWlLk6GJQsqaUBKTNV-1" source="-h37mYGi952KiiFlhKIM-1" target="-h37mYGi952KiiFlhKIM-3">
          <mxGeometry relative="1" as="geometry">
            <mxPoint x="330" y="220" as="sourcePoint" />
            <mxPoint x="490" y="220" as="targetPoint" />
          </mxGeometry>
        </mxCell>
        <mxCell id="-h37mYGi952KiiFlhKIM-7" value="Yes" style="edgeLabel;resizable=0;html=1;align=center;verticalAlign=middle;" connectable="0" vertex="1" parent="-h37mYGi952KiiFlhKIM-6">
          <mxGeometry relative="1" as="geometry">
            <mxPoint x="-10" as="offset" />
          </mxGeometry>
        </mxCell>
        <mxCell id="-h37mYGi952KiiFlhKIM-16" value="" style="edgeStyle=orthogonalEdgeStyle;rounded=0;orthogonalLoop=1;jettySize=auto;html=1;" edge="1" parent="WIyWlLk6GJQsqaUBKTNV-1" source="-h37mYGi952KiiFlhKIM-11" target="-h37mYGi952KiiFlhKIM-15">
          <mxGeometry relative="1" as="geometry" />
        </mxCell>
        <mxCell id="-h37mYGi952KiiFlhKIM-11" value="Enter Treevolution" style="whiteSpace=wrap;html=1;rounded=0;" vertex="1" parent="WIyWlLk6GJQsqaUBKTNV-1">
          <mxGeometry x="360" y="240" width="120" height="40" as="geometry" />
        </mxCell>
        <mxCell id="-h37mYGi952KiiFlhKIM-13" value="" style="endArrow=classic;html=1;rounded=0;exitX=0.5;exitY=1;exitDx=0;exitDy=0;entryX=0.5;entryY=0;entryDx=0;entryDy=0;" edge="1" parent="WIyWlLk6GJQsqaUBKTNV-1" source="-h37mYGi952KiiFlhKIM-1" target="-h37mYGi952KiiFlhKIM-11">
          <mxGeometry relative="1" as="geometry">
            <mxPoint x="360" y="320" as="sourcePoint" />
            <mxPoint x="460" y="320" as="targetPoint" />
          </mxGeometry>
        </mxCell>
        <mxCell id="-h37mYGi952KiiFlhKIM-14" value="No" style="edgeLabel;resizable=0;html=1;align=center;verticalAlign=middle;" connectable="0" vertex="1" parent="-h37mYGi952KiiFlhKIM-13">
          <mxGeometry relative="1" as="geometry" />
        </mxCell>
        <mxCell id="-h37mYGi952KiiFlhKIM-18" value="" style="edgeStyle=orthogonalEdgeStyle;rounded=0;orthogonalLoop=1;jettySize=auto;html=1;" edge="1" parent="WIyWlLk6GJQsqaUBKTNV-1" source="-h37mYGi952KiiFlhKIM-15" target="-h37mYGi952KiiFlhKIM-17">
          <mxGeometry relative="1" as="geometry" />
        </mxCell>
        <mxCell id="-h37mYGi952KiiFlhKIM-15" value="Menu" style="whiteSpace=wrap;html=1;rounded=0;" vertex="1" parent="WIyWlLk6GJQsqaUBKTNV-1">
          <mxGeometry x="360" y="320" width="120" height="40" as="geometry" />
        </mxCell>
        <mxCell id="-h37mYGi952KiiFlhKIM-20" value="" style="edgeStyle=orthogonalEdgeStyle;rounded=0;orthogonalLoop=1;jettySize=auto;html=1;" edge="1" parent="WIyWlLk6GJQsqaUBKTNV-1" source="-h37mYGi952KiiFlhKIM-17" target="-h37mYGi952KiiFlhKIM-19">
          <mxGeometry relative="1" as="geometry" />
        </mxCell>
        <mxCell id="-h37mYGi952KiiFlhKIM-17" value="Calibrate Board" style="whiteSpace=wrap;html=1;rounded=0;" vertex="1" parent="WIyWlLk6GJQsqaUBKTNV-1">
          <mxGeometry x="360" y="400" width="120" height="40" as="geometry" />
        </mxCell>
        <mxCell id="-h37mYGi952KiiFlhKIM-19" value="Need Tutorial?" style="rhombus;whiteSpace=wrap;html=1;rounded=0;" vertex="1" parent="WIyWlLk6GJQsqaUBKTNV-1">
          <mxGeometry x="380" y="480" width="80" height="80" as="geometry" />
        </mxCell>
        <mxCell id="-h37mYGi952KiiFlhKIM-27" value="" style="edgeStyle=orthogonalEdgeStyle;rounded=0;orthogonalLoop=1;jettySize=auto;html=1;" edge="1" parent="WIyWlLk6GJQsqaUBKTNV-1" source="-h37mYGi952KiiFlhKIM-21" target="-h37mYGi952KiiFlhKIM-26">
          <mxGeometry relative="1" as="geometry" />
        </mxCell>
        <mxCell id="-h37mYGi952KiiFlhKIM-21" value="Intro to QR Tower Markers" style="whiteSpace=wrap;html=1;rounded=0;" vertex="1" parent="WIyWlLk6GJQsqaUBKTNV-1">
          <mxGeometry x="520" y="500" width="120" height="40" as="geometry" />
        </mxCell>
        <mxCell id="-h37mYGi952KiiFlhKIM-22" value="" style="endArrow=classic;html=1;rounded=0;exitX=1;exitY=0.5;exitDx=0;exitDy=0;entryX=0;entryY=0.5;entryDx=0;entryDy=0;" edge="1" parent="WIyWlLk6GJQsqaUBKTNV-1" source="-h37mYGi952KiiFlhKIM-19" target="-h37mYGi952KiiFlhKIM-21">
          <mxGeometry relative="1" as="geometry">
            <mxPoint x="360" y="690" as="sourcePoint" />
            <mxPoint x="460" y="690" as="targetPoint" />
          </mxGeometry>
        </mxCell>
        <mxCell id="-h37mYGi952KiiFlhKIM-23" value="Yes" style="edgeLabel;resizable=0;html=1;align=center;verticalAlign=middle;" connectable="0" vertex="1" parent="-h37mYGi952KiiFlhKIM-22">
          <mxGeometry relative="1" as="geometry" />
        </mxCell>
        <mxCell id="-h37mYGi952KiiFlhKIM-32" value="" style="edgeStyle=orthogonalEdgeStyle;rounded=0;orthogonalLoop=1;jettySize=auto;html=1;" edge="1" parent="WIyWlLk6GJQsqaUBKTNV-1" source="-h37mYGi952KiiFlhKIM-24" target="-h37mYGi952KiiFlhKIM-31">
          <mxGeometry relative="1" as="geometry" />
        </mxCell>
        <mxCell id="-h37mYGi952KiiFlhKIM-24" value="Planning Phase 1" style="whiteSpace=wrap;html=1;rounded=0;" vertex="1" parent="WIyWlLk6GJQsqaUBKTNV-1">
          <mxGeometry x="360" y="740" width="120" height="40" as="geometry" />
        </mxCell>
        <mxCell id="-h37mYGi952KiiFlhKIM-29" value="" style="edgeStyle=orthogonalEdgeStyle;rounded=0;orthogonalLoop=1;jettySize=auto;html=1;" edge="1" parent="WIyWlLk6GJQsqaUBKTNV-1" source="-h37mYGi952KiiFlhKIM-26" target="-h37mYGi952KiiFlhKIM-28">
          <mxGeometry relative="1" as="geometry" />
        </mxCell>
        <mxCell id="-h37mYGi952KiiFlhKIM-26" value="Tutorial Planning Phase" style="whiteSpace=wrap;html=1;rounded=0;" vertex="1" parent="WIyWlLk6GJQsqaUBKTNV-1">
          <mxGeometry x="520" y="580" width="120" height="40" as="geometry" />
        </mxCell>
        <mxCell id="-h37mYGi952KiiFlhKIM-28" value="Tutorial Round" style="whiteSpace=wrap;html=1;rounded=0;" vertex="1" parent="WIyWlLk6GJQsqaUBKTNV-1">
          <mxGeometry x="520" y="660" width="120" height="40" as="geometry" />
        </mxCell>
        <mxCell id="-h37mYGi952KiiFlhKIM-30" value="" style="endArrow=classic;html=1;rounded=0;exitX=0.5;exitY=1;exitDx=0;exitDy=0;entryX=1;entryY=0.5;entryDx=0;entryDy=0;" edge="1" parent="WIyWlLk6GJQsqaUBKTNV-1" source="-h37mYGi952KiiFlhKIM-28" target="-h37mYGi952KiiFlhKIM-24">
          <mxGeometry width="50" height="50" relative="1" as="geometry">
            <mxPoint x="390" y="1200" as="sourcePoint" />
            <mxPoint x="440" y="1150" as="targetPoint" />
            <Array as="points">
              <mxPoint x="580" y="760" />
            </Array>
          </mxGeometry>
        </mxCell>
        <mxCell id="-h37mYGi952KiiFlhKIM-34" value="" style="edgeStyle=orthogonalEdgeStyle;rounded=0;orthogonalLoop=1;jettySize=auto;html=1;" edge="1" parent="WIyWlLk6GJQsqaUBKTNV-1" source="-h37mYGi952KiiFlhKIM-31" target="-h37mYGi952KiiFlhKIM-33">
          <mxGeometry relative="1" as="geometry" />
        </mxCell>
        <mxCell id="-h37mYGi952KiiFlhKIM-31" value="Round 1" style="whiteSpace=wrap;html=1;rounded=0;" vertex="1" parent="WIyWlLk6GJQsqaUBKTNV-1">
          <mxGeometry x="360" y="820" width="120" height="40" as="geometry" />
        </mxCell>
        <mxCell id="-h37mYGi952KiiFlhKIM-36" value="" style="edgeStyle=orthogonalEdgeStyle;rounded=0;orthogonalLoop=1;jettySize=auto;html=1;" edge="1" parent="WIyWlLk6GJQsqaUBKTNV-1" source="-h37mYGi952KiiFlhKIM-33" target="-h37mYGi952KiiFlhKIM-35">
          <mxGeometry relative="1" as="geometry" />
        </mxCell>
        <mxCell id="-h37mYGi952KiiFlhKIM-33" value="Planning Phase 2" style="whiteSpace=wrap;html=1;rounded=0;" vertex="1" parent="WIyWlLk6GJQsqaUBKTNV-1">
          <mxGeometry x="360" y="900" width="120" height="40" as="geometry" />
        </mxCell>
        <mxCell id="-h37mYGi952KiiFlhKIM-38" value="" style="edgeStyle=orthogonalEdgeStyle;rounded=0;orthogonalLoop=1;jettySize=auto;html=1;" edge="1" parent="WIyWlLk6GJQsqaUBKTNV-1" source="-h37mYGi952KiiFlhKIM-35" target="-h37mYGi952KiiFlhKIM-37">
          <mxGeometry relative="1" as="geometry" />
        </mxCell>
        <mxCell id="-h37mYGi952KiiFlhKIM-35" value="Round 2" style="whiteSpace=wrap;html=1;rounded=0;" vertex="1" parent="WIyWlLk6GJQsqaUBKTNV-1">
          <mxGeometry x="360" y="980" width="120" height="40" as="geometry" />
        </mxCell>
        <mxCell id="-h37mYGi952KiiFlhKIM-37" value="Planning Phase 3" style="whiteSpace=wrap;html=1;rounded=0;" vertex="1" parent="WIyWlLk6GJQsqaUBKTNV-1">
          <mxGeometry x="360" y="1060" width="120" height="40" as="geometry" />
        </mxCell>
        <mxCell id="-h37mYGi952KiiFlhKIM-43" value="" style="edgeStyle=orthogonalEdgeStyle;rounded=0;orthogonalLoop=1;jettySize=auto;html=1;" edge="1" parent="WIyWlLk6GJQsqaUBKTNV-1" source="-h37mYGi952KiiFlhKIM-40" target="-h37mYGi952KiiFlhKIM-42">
          <mxGeometry relative="1" as="geometry" />
        </mxCell>
        <mxCell id="-h37mYGi952KiiFlhKIM-40" value="Round 3" style="whiteSpace=wrap;html=1;rounded=0;" vertex="1" parent="WIyWlLk6GJQsqaUBKTNV-1">
          <mxGeometry x="360" y="1140" width="120" height="40" as="geometry" />
        </mxCell>
        <mxCell id="-h37mYGi952KiiFlhKIM-41" value="" style="endArrow=classic;html=1;rounded=0;exitX=0.5;exitY=1;exitDx=0;exitDy=0;entryX=0.5;entryY=0;entryDx=0;entryDy=0;" edge="1" parent="WIyWlLk6GJQsqaUBKTNV-1" source="-h37mYGi952KiiFlhKIM-37" target="-h37mYGi952KiiFlhKIM-40">
          <mxGeometry width="50" height="50" relative="1" as="geometry">
            <mxPoint x="390" y="1900" as="sourcePoint" />
            <mxPoint x="440" y="1850" as="targetPoint" />
          </mxGeometry>
        </mxCell>
        <mxCell id="-h37mYGi952KiiFlhKIM-45" value="" style="edgeStyle=orthogonalEdgeStyle;rounded=0;orthogonalLoop=1;jettySize=auto;html=1;" edge="1" parent="WIyWlLk6GJQsqaUBKTNV-1" source="-h37mYGi952KiiFlhKIM-42" target="-h37mYGi952KiiFlhKIM-44">
          <mxGeometry relative="1" as="geometry" />
        </mxCell>
        <mxCell id="-h37mYGi952KiiFlhKIM-42" value="Planning Phase 4" style="whiteSpace=wrap;html=1;rounded=0;" vertex="1" parent="WIyWlLk6GJQsqaUBKTNV-1">
          <mxGeometry x="360" y="1220" width="120" height="40" as="geometry" />
        </mxCell>
        <mxCell id="-h37mYGi952KiiFlhKIM-47" value="" style="edgeStyle=orthogonalEdgeStyle;rounded=0;orthogonalLoop=1;jettySize=auto;html=1;" edge="1" parent="WIyWlLk6GJQsqaUBKTNV-1" source="-h37mYGi952KiiFlhKIM-44" target="-h37mYGi952KiiFlhKIM-46">
          <mxGeometry relative="1" as="geometry" />
        </mxCell>
        <mxCell id="-h37mYGi952KiiFlhKIM-44" value="Round 4" style="whiteSpace=wrap;html=1;rounded=0;" vertex="1" parent="WIyWlLk6GJQsqaUBKTNV-1">
          <mxGeometry x="360" y="1300" width="120" height="40" as="geometry" />
        </mxCell>
        <mxCell id="-h37mYGi952KiiFlhKIM-49" value="" style="edgeStyle=orthogonalEdgeStyle;rounded=0;orthogonalLoop=1;jettySize=auto;html=1;entryX=0.5;entryY=0;entryDx=0;entryDy=0;" edge="1" parent="WIyWlLk6GJQsqaUBKTNV-1" source="-h37mYGi952KiiFlhKIM-46" target="-h37mYGi952KiiFlhKIM-50">
          <mxGeometry relative="1" as="geometry">
            <mxPoint x="410" y="2450" as="targetPoint" />
          </mxGeometry>
        </mxCell>
        <mxCell id="-h37mYGi952KiiFlhKIM-46" value="Planning Phase 5" style="whiteSpace=wrap;html=1;rounded=0;" vertex="1" parent="WIyWlLk6GJQsqaUBKTNV-1">
          <mxGeometry x="360" y="1380" width="120" height="40" as="geometry" />
        </mxCell>
        <mxCell id="-h37mYGi952KiiFlhKIM-50" value="Round 5" style="rounded=0;whiteSpace=wrap;html=1;" vertex="1" parent="WIyWlLk6GJQsqaUBKTNV-1">
          <mxGeometry x="360" y="1460" width="120" height="40" as="geometry" />
        </mxCell>
        <mxCell id="-h37mYGi952KiiFlhKIM-54" value="" style="edgeStyle=orthogonalEdgeStyle;rounded=0;orthogonalLoop=1;jettySize=auto;html=1;" edge="1" parent="WIyWlLk6GJQsqaUBKTNV-1" source="-h37mYGi952KiiFlhKIM-51" target="-h37mYGi952KiiFlhKIM-53">
          <mxGeometry relative="1" as="geometry" />
        </mxCell>
        <mxCell id="-h37mYGi952KiiFlhKIM-51" value="Game Over" style="whiteSpace=wrap;html=1;rounded=0;" vertex="1" parent="WIyWlLk6GJQsqaUBKTNV-1">
          <mxGeometry x="360" y="1540" width="120" height="40" as="geometry" />
        </mxCell>
        <mxCell id="-h37mYGi952KiiFlhKIM-52" value="" style="endArrow=classic;html=1;rounded=0;exitX=0.5;exitY=1;exitDx=0;exitDy=0;entryX=0.5;entryY=0;entryDx=0;entryDy=0;" edge="1" parent="WIyWlLk6GJQsqaUBKTNV-1" source="-h37mYGi952KiiFlhKIM-50" target="-h37mYGi952KiiFlhKIM-51">
          <mxGeometry width="50" height="50" relative="1" as="geometry">
            <mxPoint x="390" y="2520" as="sourcePoint" />
            <mxPoint x="440" y="2470" as="targetPoint" />
          </mxGeometry>
        </mxCell>
        <mxCell id="-h37mYGi952KiiFlhKIM-53" value="Score Board" style="whiteSpace=wrap;html=1;rounded=0;" vertex="1" parent="WIyWlLk6GJQsqaUBKTNV-1">
          <mxGeometry x="360" y="1620" width="120" height="40" as="geometry" />
        </mxCell>
        <mxCell id="-h37mYGi952KiiFlhKIM-55" value="Return to Menu?" style="rhombus;whiteSpace=wrap;html=1;rounded=0;" vertex="1" parent="WIyWlLk6GJQsqaUBKTNV-1">
          <mxGeometry x="380" y="1720" width="80" height="80" as="geometry" />
        </mxCell>
        <mxCell id="-h37mYGi952KiiFlhKIM-56" value="" style="endArrow=classic;html=1;rounded=0;exitX=0.5;exitY=1;exitDx=0;exitDy=0;entryX=0.5;entryY=0;entryDx=0;entryDy=0;" edge="1" parent="WIyWlLk6GJQsqaUBKTNV-1" source="-h37mYGi952KiiFlhKIM-53" target="-h37mYGi952KiiFlhKIM-55">
          <mxGeometry width="50" height="50" relative="1" as="geometry">
            <mxPoint x="390" y="2820" as="sourcePoint" />
            <mxPoint x="440" y="2770" as="targetPoint" />
          </mxGeometry>
        </mxCell>
        <mxCell id="-h37mYGi952KiiFlhKIM-57" value="Do Nothing" style="whiteSpace=wrap;html=1;rounded=0;" vertex="1" parent="WIyWlLk6GJQsqaUBKTNV-1">
          <mxGeometry x="360" y="1840" width="120" height="40" as="geometry" />
        </mxCell>
        <mxCell id="-h37mYGi952KiiFlhKIM-59" value="" style="endArrow=classic;html=1;rounded=0;exitX=0.5;exitY=1;exitDx=0;exitDy=0;entryX=0.5;entryY=0;entryDx=0;entryDy=0;" edge="1" parent="WIyWlLk6GJQsqaUBKTNV-1" source="-h37mYGi952KiiFlhKIM-55" target="-h37mYGi952KiiFlhKIM-57">
          <mxGeometry relative="1" as="geometry">
            <mxPoint x="360" y="2790" as="sourcePoint" />
            <mxPoint x="460" y="2790" as="targetPoint" />
          </mxGeometry>
        </mxCell>
        <mxCell id="-h37mYGi952KiiFlhKIM-60" value="No" style="edgeLabel;resizable=0;html=1;align=center;verticalAlign=middle;" connectable="0" vertex="1" parent="-h37mYGi952KiiFlhKIM-59">
          <mxGeometry relative="1" as="geometry" />
        </mxCell>
        <mxCell id="-h37mYGi952KiiFlhKIM-63" value="" style="endArrow=classic;html=1;rounded=0;exitX=0;exitY=0.5;exitDx=0;exitDy=0;entryX=0;entryY=0.5;entryDx=0;entryDy=0;" edge="1" parent="WIyWlLk6GJQsqaUBKTNV-1" source="-h37mYGi952KiiFlhKIM-55" target="-h37mYGi952KiiFlhKIM-15">
          <mxGeometry relative="1" as="geometry">
            <mxPoint x="330" y="2690" as="sourcePoint" />
            <mxPoint x="240" y="550" as="targetPoint" />
            <Array as="points">
              <mxPoint x="240" y="1760" />
              <mxPoint x="240" y="340" />
            </Array>
          </mxGeometry>
        </mxCell>
        <mxCell id="-h37mYGi952KiiFlhKIM-64" value="Yes" style="edgeLabel;resizable=0;html=1;align=center;verticalAlign=middle;" connectable="0" vertex="1" parent="-h37mYGi952KiiFlhKIM-63">
          <mxGeometry relative="1" as="geometry">
            <mxPoint x="80" y="700" as="offset" />
          </mxGeometry>
        </mxCell>
        <mxCell id="-h37mYGi952KiiFlhKIM-65" value="Return to Menu" style="edgeLabel;resizable=0;html=1;align=left;verticalAlign=bottom;" connectable="0" vertex="1" parent="-h37mYGi952KiiFlhKIM-63">
          <mxGeometry x="-1" relative="1" as="geometry">
            <mxPoint x="-140" y="-1420" as="offset" />
          </mxGeometry>
        </mxCell>
        <mxCell id="-h37mYGi952KiiFlhKIM-66" value="" style="endArrow=classic;html=1;rounded=0;exitX=0.5;exitY=1;exitDx=0;exitDy=0;entryX=1;entryY=0.5;entryDx=0;entryDy=0;" edge="1" parent="WIyWlLk6GJQsqaUBKTNV-1" source="-h37mYGi952KiiFlhKIM-3" target="-h37mYGi952KiiFlhKIM-11">
          <mxGeometry width="50" height="50" relative="1" as="geometry">
            <mxPoint x="390" y="320" as="sourcePoint" />
            <mxPoint x="440" y="270" as="targetPoint" />
            <Array as="points">
              <mxPoint x="580" y="260" />
            </Array>
          </mxGeometry>
        </mxCell>
        <mxCell id="-h37mYGi952KiiFlhKIM-67" value="" style="endArrow=classic;html=1;rounded=0;exitX=0.5;exitY=1;exitDx=0;exitDy=0;entryX=0.5;entryY=0;entryDx=0;entryDy=0;" edge="1" parent="WIyWlLk6GJQsqaUBKTNV-1" source="-h37mYGi952KiiFlhKIM-19" target="-h37mYGi952KiiFlhKIM-24">
          <mxGeometry relative="1" as="geometry">
            <mxPoint x="360" y="500" as="sourcePoint" />
            <mxPoint x="460" y="500" as="targetPoint" />
          </mxGeometry>
        </mxCell>
        <mxCell id="-h37mYGi952KiiFlhKIM-68" value="No" style="edgeLabel;resizable=0;html=1;align=center;verticalAlign=middle;" connectable="0" vertex="1" parent="-h37mYGi952KiiFlhKIM-67">
          <mxGeometry relative="1" as="geometry" />
        </mxCell>
      </root>
    </mxGraphModel>
  </diagram>
</mxfile>
